PathFileType	4	(X/Y/Z)	Walk2.trc
DataRate	CameraRate	NumFrames	NumMarkers	Units	OrigDataRate	OrigDataStartFrame	OrigNumFrames
200.000000	200.000000	6	59	mm	200.000000	450	485
Frame#	Times		LBHD		C7		T10		RBack		LPSI		RPSI		RCAR		LElbowM		LMT1		LLFC		RWRR		LFHD		LUA1		RUA1		RFA1		CLAV		LCAR		RFHD		RElbowM		LWRU		LACR1		RBHD		RACR1		RTH3		LFA1		RWRU		RTH4		RTH2		RTB1		RTB4		RCAL		RToe		RTB3		RLFC		RMT1		RMT5		LWRR		RElbow		RTB2		LTH4		RTH1		LTH1		LTB3		STRN		LElbow		RMMAL		LTH3		RASI		LTH2		LCAL		LASI		LLMAL		RLMAL		LTB2		LTB4		LMT5		LMMAL		LToe		LTB1
			X1	Y1	Z1	X2	Y2	Z2	X3	Y3	Z3	X4	Y4	Z4	X5	Y5	Z5	X6	Y6	Z6	X7	Y7	Z7	X8	Y8	Z8	X9	Y9	Z9	X10	Y10	Z10	X11	Y11	Z11	X12	Y12	Z12	X13	Y13	Z13	X14	Y14	Z14	X15	Y15	Z15	X16	Y16	Z16	X17	Y17	Z17	X18	Y18	Z18	X19	Y19	Z19	X20	Y20	Z20	X21	Y21	Z21	X22	Y22	Z22	X23	Y23	Z23	X24	Y24	Z24	X25	Y25	Z25	X26	Y26	Z26	X27	Y27	Z27	X28	Y28	Z28	X29	Y29	Z29	X30	Y30	Z30	X31	Y31	Z31	X32	Y32	Z32	X33	Y33	Z33	X34	Y34	Z34	X35	Y35	Z35	X36	Y36	Z36	X37	Y37	Z37	X38	Y38	Z38	X39	Y39	Z39	X40	Y40	Z40	X41	Y41	Z41	X42	Y42	Z42	X43	Y43	Z43	X44	Y44	Z44	X45	Y45	Z45	X46	Y46	Z46	X47	Y47	Z47	X48	Y48	Z48	X49	Y49	Z49	X50	Y50	Z50	X51	Y51	Z51	X52	Y52	Z52	X53	Y53	Z53	X54	Y54	Z54	X55	Y55	Z55	X56	Y56	Z56	X57	Y57	Z57	X58	Y58	Z58	X59	Y59	Z59

450	2.25	1034.3	1498.8	-97.276	987.9	1365.5	-25.202	957.02	1092.2	-27.62	957.36	1264.7	105.37	940.69	901.82	-63.074	930.88	904.34	36.838	1129.9	760.53	305.78	991.37	979.23	-219.42	1138.1	43.72	-24.364	1078.8	451.51	-130.97	1156	796.93	257.91	1203.6	1483.5	-58.799	1063.2	1129	-267.41	1060.2	1152.8	217.03	1051.6	885.71	273.24	1109.5	1282.9	-14.44	1154.4	746.63	-323.61	1201.4	1493	18.91	1002.5	970.2	179.6	1103.5	781.49	-311.29	1069.1	1301	-183.34	1021.8	1507.5	25.424	1054.1	1305	131.85	1153.8	566.15	172.39	1061	892.42	-306.77	1084.8	779.03	268.12	1125.2	656.44	188.93	1196.1	684.08	169.68	1193.7	344.91	88.621	1143.3	268.54	84.472	971.79	121.02	66.706	1160.1	37.883	107.81	1106.4	183.18	77.502	1198.7	476.29	166.85	1123.3	73.074	80.158	1085.9	66.32	123.27	1166	785.67	-272.63	1040.7	1012.2	259.52	1108.4	281.94	146.84	1116.2	652.71	-163.14	1100.4	741.08	208.27	1115.3	742.62	-191.58	1081.6	157.41	-33.788	1172.3	1178.3	-13.146	1022	1013.5	-285.4	1053.6	126.49	34.549	1112.6	560.56	-139.07	1166.3	882.05	129.75	1172.9	666.84	-118.72	983.51	28.513	-37.894	1176.6	855.25	-162.89	1030.7	61.304	-77.098	1028.5	124.81	110.3	1063.4	247.24	-109.91	1083.4	248.65	-42.23	1115.5	28.571	-81.216	1047.3	66.413	1.6907	1195.2	19.026	-31.449	1102.2	338.98	-47.546
451	2.255	1040.8	1498.5	-97.06	994.02	1365.2	-25.134	962.85	1091.8	-27.796	963.16	1264.4	105.27	946.31	901.42	-62.696	936.82	903.74	37.3	1132.5	759.85	307.15	998.51	978.59	-219.67	1138.1	43.687	-24.398	1081.5	451.32	-131.09	1159.2	796.05	259.45	1209.9	1482.9	-58.429	1069.6	1128.7	-267.51	1065.1	1152.2	217.13	1055	885.28	273.51	1115.5	1282.5	-14.338	1164.4	747.41	-322.45	1207.7	1492.3	19.273	1007.2	969.92	179.2	1113.1	781.78	-310.53	1075.2	1300.7	-183.25	1028.1	1507.1	25.643	1059.9	1304.4	131.92	1163	566.54	171.66	1069.4	892.18	-306.46	1087.9	778.48	269.04	1133.8	656.59	188.4	1204.1	684.86	168.4	1205.7	345.21	87.724	1157.5	267.4	83.963	990.26	114.85	67.306	1181.4	37.822	107.99	1123.1	181	77.336	1208	476.85	165.58	1143.3	71.778	80.381	1106.3	63.902	123.62	1175.3	786.61	-271.43	1044.6	1011.8	259.59	1122.6	279.89	146.48	1120.6	652.26	-163.17	1108.2	740.97	207.84	1120.5	742.18	-191.59	1082.4	157.15	-33.957	1178.2	1177.7	-13.081	1029.2	1013	-285.55	1071.8	122.71	34.768	1116.2	560.16	-139.14	1172.1	881.71	130	1177.2	665.96	-118.4	983.5	28.619	-37.897	1184.4	855.05	-163.02	1030.8	61.328	-77.115	1047	120.41	110.69	1064.6	247.07	-110.1	1084.7	248.36	-42.385	1115.5	28.488	-81.245	1047.5	66.43	1.6664	1195.3	19.044	-31.491	1104.2	338.57	-47.751
452	2.26	1047.2	1498.1	-96.831	1000.1	1364.9	-25.056	968.71	1091.5	-27.956	968.96	1264	105.18	951.93	900.98	-62.258	942.78	903.07	37.797	1135.1	759.14	308.5	1005.7	977.89	-219.9	1138.1	43.656	-24.435	1084.3	451.11	-131.21	1162.3	795.13	260.99	1216.3	1482.2	-58.063	1076	1128.4	-267.6	1070	1151.6	217.24	1058.4	884.8	273.77	1121.5	1282	-14.225	1174.3	748.13	-321.25	1214	1491.6	19.634	1011.9	969.59	178.83	1122.6	782.03	-309.75	1081.3	1300.4	-183.15	1034.4	1506.7	25.874	1065.8	1303.8	132	1172.2	566.85	170.92	1077.7	891.88	-306.13	1090.9	777.92	269.92	1142.4	656.67	187.87	1212.1	685.52	167.07	1217.6	345.49	86.835	1171.7	266.28	83.459	1008.9	108.8	67.894	1202.6	37.905	108.09	1139.8	178.9	77.175	1217.2	477.3	164.31	1163.3	70.611	80.555	1126.7	61.623	123.93	1184.5	787.5	-270.21	1048.6	1011.3	259.68	1136.6	277.87	146.12	1125.1	651.77	-163.19	1116.1	740.8	207.43	1125.8	741.7	-191.59	1083.1	156.88	-34.13	1184	1177.2	-13.019	1036.4	1012.4	-285.69	1090	119.05	34.969	1119.9	559.74	-139.21	1177.9	881.3	130.28	1181.6	665.06	-118.12	983.48	28.731	-37.901	1191.7	854.84	-163.14	1030.9	61.353	-77.133	1065.7	116.12	111.07	1065.9	246.89	-110.29	1086	248.06	-42.549	1115.5	28.41	-81.278	1047.6	66.439	1.6514	1195.4	19.068	-31.552	1106.3	338.12	-47.965
453	2.265	1053.6	1497.7	-96.589	1006.2	1364.5	-24.967	974.6	1091	-28.099	974.76	1263.6	105.11	957.56	900.49	-61.762	948.76	902.33	38.327	1137.7	758.38	309.82	1012.8	977.13	-220.12	1138.1	43.628	-24.47	1087.1	450.87	-131.33	1165.5	794.19	262.51	1222.6	1481.4	-57.702	1082.4	1128	-267.68	1074.9	1151	217.35	1061.8	884.27	274.02	1127.5	1281.4	-14.102	1184.3	748.8	-320.02	1220.3	1490.8	19.993	1016.5	969.22	178.48	1132.1	782.23	-308.95	1087.4	1300.1	-183.04	1040.7	1506.2	26.118	1071.6	1303.1	132.1	1181.2	567.08	170.16	1086.1	891.54	-305.78	1093.9	777.33	270.77	1150.8	656.67	187.34	1220	686.06	165.72	1229.4	345.75	85.955	1185.9	265.19	82.959	1027.7	102.88	68.466	1223.7	38.146	108.13	1156.5	176.9	77.015	1226.1	477.64	163.05	1183.3	69.588	80.681	1147.1	59.505	124.2	1193.6	788.33	-268.96	1052.5	1010.8	259.77	1150.7	275.88	145.74	1129.5	651.25	-163.23	1123.9	740.56	207.03	1131	741.18	-191.59	1083.9	156.59	-34.301	1189.9	1176.5	-12.955	1043.7	1011.8	-285.81	1108.3	115.52	35.149	1123.6	559.28	-139.28	1183.7	880.82	130.6	1186	664.13	-117.88	983.47	28.85	-37.906	1198.5	854.62	-163.26	1031	61.378	-77.148	1084.4	111.99	111.42	1067.3	246.69	-110.47	1087.4	247.74	-42.716	1115.5	28.337	-81.314	1047.7	66.438	1.6479	1195.5	19.096	-31.63	1108.4	337.65	-48.184
454	2.27	1059.9	1497.2	-96.336	1012.3	1364.1	-24.867	980.49	1090.5	-28.221	980.55	1263.1	105.06	963.19	899.97	-61.209	954.77	901.54	38.889	1140.3	757.59	311.1	1020	976.3	-220.34	1138.2	43.6	-24.502	1089.9	450.61	-131.43	1168.7	793.22	264.02	1228.9	1480.6	-57.347	1088.8	1127.5	-267.74	1079.8	1150.3	217.49	1065.2	883.7	274.27	1133.5	1280.8	-13.968	1194.1	749.41	-318.77	1226.6	1489.9	20.348	1021.2	968.8	178.17	1141.6	782.39	-308.12	1093.5	1299.6	-182.92	1047	1505.7	26.374	1077.4	1302.4	132.21	1190	567.22	169.4	1094.5	891.15	-305.42	1097	776.71	271.58	1159.2	656.59	186.81	1227.8	686.49	164.34	1241.1	345.99	85.081	1200	264.14	82.459	1046.7	97.135	69.018	1244.8	38.557	108.1	1173.2	175.01	76.853	1234.9	477.86	161.82	1203.3	68.724	80.759	1167.5	57.565	124.43	1202.7	789.1	-267.71	1056.4	1010.2	259.88	1164.7	273.93	145.35	1134	650.69	-163.26	1131.8	740.25	206.65	1136.2	740.62	-191.58	1084.7	156.3	-34.463	1195.7	1175.9	-12.889	1051	1011.1	-285.92	1126.7	112.15	35.302	1127.4	558.79	-139.34	1189.5	880.29	130.94	1190.4	663.17	-117.68	983.45	28.974	-37.907	1204.8	854.4	-163.37	1031.1	61.404	-77.16	1103.2	108.01	111.74	1068.6	246.48	-110.66	1088.8	247.41	-42.879	1115.4	28.27	-81.351	1047.8	66.427	1.6575	1195.5	19.129	-31.725	1110.5	337.15	-48.401
455	2.275	1066.3	1496.7	-96.072	1018.4	1363.6	-24.756	986.36	1090	-28.316	986.35	1262.5	105.02	968.82	899.43	-60.599	960.8	900.7	39.482	1143	756.75	312.35	1027.2	975.41	-220.54	1138.2	43.574	-24.529	1092.8	450.31	-131.53	1171.9	792.22	265.51	1235.2	1479.7	-56.996	1095.3	1127	-267.79	1084.7	1149.6	217.63	1068.7	883.08	274.53	1139.5	1280.2	-13.823	1203.9	749.96	-317.48	1232.8	1489	20.7	1025.8	968.33	177.9	1151	782.48	-307.26	1099.6	1299.1	-182.79	1053.3	1505.1	26.641	1083.3	1301.6	132.33	1198.8	567.25	168.64	1102.8	890.71	-305.03	1100	776.05	272.36	1167.5	656.43	186.28	1235.5	686.78	162.96	1252.6	346.23	84.213	1214	263.14	81.958	1065.7	91.58	69.547	1265.7	39.15	108.01	1189.9	173.24	76.686	1243.5	477.97	160.61	1223.2	68.033	80.785	1187.9	55.816	124.61	1211.8	789.81	-266.43	1060.3	1009.6	260	1178.6	272.04	144.94	1138.5	650.1	-163.3	1139.6	739.86	206.28	1141.4	740.03	-191.57	1085.6	155.99	-34.612	1201.6	1175.2	-12.819	1058.4	1010.4	-286.01	1145.1	108.95	35.425	1131.1	558.27	-139.4	1195.4	879.7	131.32	1194.8	662.19	-117.53	983.43	29.105	-37.903	1210.6	854.16	-163.48	1031.3	61.432	-77.168	1122.1	104.22	112.02	1070	246.25	-110.83	1090.3	247.06	-43.033	1115.4	28.21	-81.387	1047.9	66.411	1.6815	1195.6	19.164	-31.836	1112.7	336.63	-48.609
